<svg xmlns="http://www.w3.org/2000/svg" width="48" height="48" viewBox="0 0 48 48"><defs><style>.cls-1{fill:#f6b445;}.cls-2{fill:#fed049;}.cls-3{fill:#474c54;}</style></defs><title>18-File-Download</title><g id="_18-File-Download" data-name="18-File-Download"><path class="cls-1" d="M45,13H37a4,4,0,0,1-4-4V1Z"/><path class="cls-2" d="M45,13V43a4,4,0,0,1-4,4H7c-4,0-4-4-4-4V5A4,4,0,0,1,7,1H33V9a4,4,0,0,0,4,4h8Z"/><path class="cls-3" d="M45.707,12.293l-12-12a.975.975,0,0,0-.323-.216A.988.988,0,0,0,33,0H7A5.006,5.006,0,0,0,2,5V43a4.821,4.821,0,0,0,5,5H41a5.006,5.006,0,0,0,5-5V13A1,1,0,0,0,45.707,12.293ZM44,43a3,3,0,0,1-3,3H7a2.852,2.852,0,0,1-3-3V5A3,3,0,0,1,7,2H32V9a5.006,5.006,0,0,0,5,5h2a1,1,0,0,0,0-2H37a3,3,0,0,1-3-3V3.414l10,10Z"/><path class="cls-3" d="M24.708,34.706l3-3a1,1,0,0,0-1.414-1.414L25,31.586V18a1,1,0,0,0-2,0V31.586l-1.293-1.293a1,1,0,0,0-1.414,1.414l3,3a1,1,0,0,0,1.416,0Z"/><path class="cls-3" d="M21,37H18a.915.915,0,0,1-1-1V34a1,1,0,0,0-2,0v2a2.916,2.916,0,0,0,3,3h3a1,1,0,0,0,0-2Z"/><path class="cls-3" d="M32,33a1,1,0,0,0-1,1v1.988A.918.918,0,0,1,30,37H27a1,1,0,0,0,0,2h3a2.916,2.916,0,0,0,3-3V34A1,1,0,0,0,32,33Z"/></g></svg>